<svg xmlns="http://www.w3.org/2000/svg" viewBox="0 0 1600 900" font-family="Arial, Helvetica, sans-serif">
<defs>
  <radialGradient id="bg" cx="50%" cy="38%" r="80%">
    <stop offset="0%" stop-color="#332414"/>
    <stop offset="60%" stop-color="#211709"/>
    <stop offset="100%" stop-color="#140e07"/>
  </radialGradient>
  <radialGradient id="glow" cx="50%" cy="50%" r="50%">
    <stop offset="0%" stop-color="#FFCE00" stop-opacity="0.35"/>
    <stop offset="100%" stop-color="#FFCE00" stop-opacity="0"/>
  </radialGradient>
  <radialGradient id="cheese" cx="45%" cy="42%" r="65%">
    <stop offset="0%" stop-color="#FADD7A"/>
    <stop offset="100%" stop-color="#F5C542"/>
  </radialGradient>
  <pattern id="dots" width="26" height="26" patternUnits="userSpaceOnUse">
    <circle cx="2" cy="2" r="1.3" fill="#ffffff" opacity="0.05"/>
  </pattern>
</defs>
<rect width="1600" height="900" fill="url(#bg)"/>
<rect width="1600" height="900" fill="url(#dots)"/><circle cx="800.0" cy="410.0" r="413.99999999999994" fill="url(#glow)"/><rect x="478.0" y="283.5" width="644.0" height="345.0" rx="16.099999999999998" fill="#3A2A1A" stroke="#56402a" stroke-width="5.75"/><path d="M 478.0 283.5 h 107.33333333333333 v 52.9 a 53.666666666666664 34.5 0 0 1 -107.33333333333333 0 Z" fill="#FFCE00"/><path d="M 585.3333333333334 283.5 h 107.33333333333333 v 52.9 a 53.666666666666664 34.5 0 0 1 -107.33333333333333 0 Z" fill="#00247D"/><path d="M 692.6666666666666 283.5 h 107.33333333333333 v 52.9 a 53.666666666666664 34.5 0 0 1 -107.33333333333333 0 Z" fill="#CF142B"/><path d="M 800.0 283.5 h 107.33333333333333 v 52.9 a 53.666666666666664 34.5 0 0 1 -107.33333333333333 0 Z" fill="#FFCE00"/><path d="M 907.3333333333333 283.5 h 107.33333333333333 v 52.9 a 53.666666666666664 34.5 0 0 1 -107.33333333333333 0 Z" fill="#00247D"/><path d="M 1014.6666666666666 283.5 h 107.33333333333333 v 52.9 a 53.666666666666664 34.5 0 0 1 -107.33333333333333 0 Z" fill="#CF142B"/><rect x="742.5" y="410.0" width="114.99999999999999" height="218.49999999999997" rx="11.5" fill="#1d1409" stroke="#56402a" stroke-width="4.6"/><rect x="529.75" y="421.5" width="138.0" height="103.49999999999999" rx="9.2" fill="#FFD86B" opacity="0.85"/><rect x="932.25" y="421.5" width="138.0" height="103.49999999999999" rx="9.2" fill="#FFD86B" opacity="0.85"/><rect x="604.5" y="230.6" width="390.99999999999994" height="59.8" rx="13.799999999999999" fill="#CF142B"/><text x="800.0" y="272.0" text-anchor="middle" font-size="34.5" font-weight="bold" fill="#fff" letter-spacing="2">SABOR LLANERO</text><text x="800.0" y="808" text-anchor="middle" font-size="46" font-weight="bold" fill="#FFCE00" letter-spacing="6">NUESTRO LOCAL</text><text x="800.0" y="852" text-anchor="middle" font-size="22" fill="#cdbfa8" letter-spacing="3">Reemplaza esta imagen por una foto real · hero-2</text><rect x="0" y="890" width="533.3333333333334" height="10" fill="#FFCE00"/><rect x="533.3333333333334" y="890" width="533.3333333333334" height="10" fill="#00247D"/><rect x="1066.6666666666667" y="890" width="533.3333333333334" height="10" fill="#CF142B"/></svg>