<svg xmlns="http://www.w3.org/2000/svg" viewBox="0 0 1600 900" font-family="Arial, Helvetica, sans-serif">
<defs>
  <radialGradient id="bg" cx="50%" cy="38%" r="80%">
    <stop offset="0%" stop-color="#332414"/>
    <stop offset="60%" stop-color="#211709"/>
    <stop offset="100%" stop-color="#140e07"/>
  </radialGradient>
  <radialGradient id="glow" cx="50%" cy="50%" r="50%">
    <stop offset="0%" stop-color="#FFCE00" stop-opacity="0.35"/>
    <stop offset="100%" stop-color="#FFCE00" stop-opacity="0"/>
  </radialGradient>
  <radialGradient id="cheese" cx="45%" cy="42%" r="65%">
    <stop offset="0%" stop-color="#FADD7A"/>
    <stop offset="100%" stop-color="#F5C542"/>
  </radialGradient>
  <pattern id="dots" width="26" height="26" patternUnits="userSpaceOnUse">
    <circle cx="2" cy="2" r="1.3" fill="#ffffff" opacity="0.05"/>
  </pattern>
</defs>
<rect width="1600" height="900" fill="url(#bg)"/>
<rect width="1600" height="900" fill="url(#dots)"/><ellipse cx="800.0" cy="666.8" rx="333.5" ry="63.8" fill="#000" opacity="0.45"/><circle cx="800.0" cy="400.0" r="464.0" fill="url(#glow)"/><circle cx="800.0" cy="400.0" r="290" fill="#D99A3D" stroke="#B57A26" stroke-width="11.6"/><circle cx="606.8" cy="211.8" r="7.6" fill="#B57A26" opacity="0.6"/><circle cx="875.6" cy="141.1" r="8.4" fill="#B57A26" opacity="0.6"/><circle cx="782.9" cy="130.8" r="8.4" fill="#B57A26" opacity="0.6"/><circle cx="1065.2" cy="448.9" r="6.4" fill="#B57A26" opacity="0.6"/><circle cx="1052.8" cy="306.0" r="7.2" fill="#B57A26" opacity="0.6"/><circle cx="1019.1" cy="242.7" r="4.8" fill="#B57A26" opacity="0.6"/><circle cx="535.4" cy="452.1" r="5.4" fill="#B57A26" opacity="0.6"/><circle cx="540.4" cy="326.8" r="6.8" fill="#B57A26" opacity="0.6"/><circle cx="1068.8" cy="422.2" r="5.3" fill="#B57A26" opacity="0.6"/><circle cx="750.3" cy="665.1" r="8.3" fill="#B57A26" opacity="0.6"/><circle cx="826.6" cy="131.6" r="5.0" fill="#B57A26" opacity="0.6"/><circle cx="878.7" cy="142.0" r="5.0" fill="#B57A26" opacity="0.6"/><circle cx="600.5" cy="218.5" r="4.9" fill="#B57A26" opacity="0.6"/><circle cx="1069.7" cy="403.0" r="8.1" fill="#B57A26" opacity="0.6"/><circle cx="800.0" cy="400.0" r="237.79999999999998" fill="url(#cheese)"/><circle cx="800.0" cy="400.0" r="237.79999999999998" fill="none" stroke="#C44D20" stroke-width="7.25" opacity="0.7"/><line x1="572.6" y1="353.9" x2="1027.4" y2="446.1" stroke="#D9A93F" stroke-width="3.48" opacity="0.8"/><line x1="671.8" y1="206.6" x2="928.2" y2="593.4" stroke="#D9A93F" stroke-width="3.48" opacity="0.8"/><line x1="846.1" y1="172.6" x2="753.9" y2="627.4" stroke="#D9A93F" stroke-width="3.48" opacity="0.8"/><line x1="993.4" y1="271.8" x2="606.6" y2="528.2" stroke="#D9A93F" stroke-width="3.48" opacity="0.8"/><circle cx="813.6" cy="452.1" r="11.5" fill="#6B3A1F"/><circle cx="846.8" cy="351.6" r="11.4" fill="#6B3A1F"/><circle cx="665.8" cy="366.3" r="7.0" fill="#6B3A1F"/><circle cx="931.1" cy="349.0" r="11.4" fill="#6B3A1F"/><circle cx="854.3" cy="357.2" r="7.9" fill="#6B3A1F"/><circle cx="820.7" cy="435.5" r="6.2" fill="#6B3A1F"/><circle cx="760.5" cy="518.3" r="5.8" fill="#6B3A1F"/><circle cx="766.6" cy="331.4" r="7.6" fill="#6B3A1F"/><circle cx="842.7" cy="307.0" r="7.6" fill="#6B3A1F"/><circle cx="657.8" cy="416.9" r="6.1" fill="#6B3A1F"/><circle cx="818.4" cy="397.1" r="10.1" fill="#6B3A1F"/><circle cx="810.0" cy="385.3" r="10.4" fill="#6B3A1F"/><circle cx="719.8" cy="489.6" r="5.9" fill="#6B3A1F"/><circle cx="845.5" cy="413.8" r="11.3" fill="#6B3A1F"/><circle cx="850.3" cy="544.0" r="11.2" fill="#6B3A1F"/><circle cx="872.3" cy="372.4" r="7.9" fill="#6B3A1F"/><circle cx="645.7" cy="375.9" r="6.4" fill="#6B3A1F"/><circle cx="798.4" cy="239.9" r="10.8" fill="#6B3A1F"/><circle cx="982.4" cy="442.7" r="6.3" fill="#6B3A1F"/><circle cx="731.9" cy="506.2" r="11.1" fill="#6B3A1F"/><circle cx="701.8" cy="554.8" r="9.0" fill="#6B3A1F"/><circle cx="772.3" cy="466.9" r="6.8" fill="#6B3A1F"/><circle cx="855.5" cy="429.7" r="23.2" fill="#C0392B" stroke="#8E2418" stroke-width="2"/><circle cx="735.3" cy="238.9" r="23.2" fill="#C0392B" stroke="#8E2418" stroke-width="2"/><circle cx="826.3" cy="442.3" r="23.2" fill="#C0392B" stroke="#8E2418" stroke-width="2"/><circle cx="912.7" cy="390.6" r="23.2" fill="#C0392B" stroke="#8E2418" stroke-width="2"/><circle cx="738.2" cy="441.5" r="23.2" fill="#C0392B" stroke="#8E2418" stroke-width="2"/><circle cx="674.3" cy="315.8" r="23.2" fill="#C0392B" stroke="#8E2418" stroke-width="2"/><text x="800.0" y="808" text-anchor="middle" font-size="46" font-weight="bold" fill="#FFCE00" letter-spacing="6">PIZZA FULL BEEF</text><text x="800.0" y="852" text-anchor="middle" font-size="22" fill="#cdbfa8" letter-spacing="3">Reemplaza esta imagen por una foto real · hero-5</text><rect x="0" y="890" width="533.3333333333334" height="10" fill="#FFCE00"/><rect x="533.3333333333334" y="890" width="533.3333333333334" height="10" fill="#00247D"/><rect x="1066.6666666666667" y="890" width="533.3333333333334" height="10" fill="#CF142B"/></svg>