<svg xmlns="http://www.w3.org/2000/svg" viewBox="0 0 1600 900" font-family="Arial, Helvetica, sans-serif">
<defs>
  <radialGradient id="bg" cx="50%" cy="38%" r="80%">
    <stop offset="0%" stop-color="#332414"/>
    <stop offset="60%" stop-color="#211709"/>
    <stop offset="100%" stop-color="#140e07"/>
  </radialGradient>
  <radialGradient id="glow" cx="50%" cy="50%" r="50%">
    <stop offset="0%" stop-color="#FFCE00" stop-opacity="0.35"/>
    <stop offset="100%" stop-color="#FFCE00" stop-opacity="0"/>
  </radialGradient>
  <radialGradient id="cheese" cx="45%" cy="42%" r="65%">
    <stop offset="0%" stop-color="#FADD7A"/>
    <stop offset="100%" stop-color="#F5C542"/>
  </radialGradient>
  <pattern id="dots" width="26" height="26" patternUnits="userSpaceOnUse">
    <circle cx="2" cy="2" r="1.3" fill="#ffffff" opacity="0.05"/>
  </pattern>
</defs>
<rect width="1600" height="900" fill="url(#bg)"/>
<rect width="1600" height="900" fill="url(#dots)"/><ellipse cx="800.0" cy="666.8" rx="333.5" ry="63.8" fill="#000" opacity="0.45"/><circle cx="800.0" cy="400.0" r="464.0" fill="url(#glow)"/><circle cx="800.0" cy="400.0" r="290" fill="#D99A3D" stroke="#B57A26" stroke-width="11.6"/><circle cx="979.2" cy="601.6" r="8.0" fill="#B57A26" opacity="0.6"/><circle cx="823.3" cy="131.3" r="5.5" fill="#B57A26" opacity="0.6"/><circle cx="530.4" cy="407.7" r="6.3" fill="#B57A26" opacity="0.6"/><circle cx="643.7" cy="180.2" r="7.8" fill="#B57A26" opacity="0.6"/><circle cx="1024.1" cy="550.0" r="4.5" fill="#B57A26" opacity="0.6"/><circle cx="938.4" cy="168.5" r="6.2" fill="#B57A26" opacity="0.6"/><circle cx="820.8" cy="131.1" r="4.4" fill="#B57A26" opacity="0.6"/><circle cx="546.0" cy="490.7" r="7.5" fill="#B57A26" opacity="0.6"/><circle cx="835.9" cy="667.3" r="8.5" fill="#B57A26" opacity="0.6"/><circle cx="1019.6" cy="243.4" r="4.5" fill="#B57A26" opacity="0.6"/><circle cx="1066.3" cy="442.9" r="6.7" fill="#B57A26" opacity="0.6"/><circle cx="1050.2" cy="299.4" r="6.0" fill="#B57A26" opacity="0.6"/><circle cx="856.2" cy="663.8" r="6.2" fill="#B57A26" opacity="0.6"/><circle cx="1065.2" cy="448.9" r="5.3" fill="#B57A26" opacity="0.6"/><circle cx="800.0" cy="400.0" r="237.79999999999998" fill="url(#cheese)"/><circle cx="800.0" cy="400.0" r="237.79999999999998" fill="none" stroke="#C44D20" stroke-width="7.25" opacity="0.7"/><line x1="572.6" y1="353.9" x2="1027.4" y2="446.1" stroke="#D9A93F" stroke-width="3.48" opacity="0.8"/><line x1="671.8" y1="206.6" x2="928.2" y2="593.4" stroke="#D9A93F" stroke-width="3.48" opacity="0.8"/><line x1="846.1" y1="172.6" x2="753.9" y2="627.4" stroke="#D9A93F" stroke-width="3.48" opacity="0.8"/><line x1="993.4" y1="271.8" x2="606.6" y2="528.2" stroke="#D9A93F" stroke-width="3.48" opacity="0.8"/><circle cx="697.3" cy="442.3" r="22.3" fill="#C0392B" stroke="#8E2418" stroke-width="4.0"/><circle cx="808.8" cy="472.8" r="24.3" fill="#C0392B" stroke="#8E2418" stroke-width="4.4"/><circle cx="788.5" cy="445.0" r="27.6" fill="#C0392B" stroke="#8E2418" stroke-width="5.0"/><circle cx="677.1" cy="354.5" r="21.9" fill="#C0392B" stroke="#8E2418" stroke-width="3.9"/><circle cx="960.5" cy="392.5" r="21.4" fill="#C0392B" stroke="#8E2418" stroke-width="3.8"/><circle cx="729.6" cy="523.1" r="26.5" fill="#C0392B" stroke="#8E2418" stroke-width="4.8"/><circle cx="893.1" cy="360.7" r="27.5" fill="#C0392B" stroke="#8E2418" stroke-width="5.0"/><circle cx="759.3" cy="325.6" r="25.4" fill="#C0392B" stroke="#8E2418" stroke-width="4.6"/><circle cx="917.5" cy="293.1" r="24.7" fill="#C0392B" stroke="#8E2418" stroke-width="4.4"/><circle cx="770.7" cy="381.6" r="7.2" fill="#3E7C3A"/><circle cx="807.2" cy="558.3" r="7.2" fill="#3E7C3A"/><circle cx="751.0" cy="429.3" r="7.2" fill="#3E7C3A"/><circle cx="663.5" cy="356.8" r="7.2" fill="#3E7C3A"/><circle cx="758.9" cy="320.1" r="7.2" fill="#3E7C3A"/><circle cx="696.5" cy="441.7" r="7.2" fill="#3E7C3A"/><circle cx="820.2" cy="288.2" r="7.2" fill="#3E7C3A"/><text x="800.0" y="808" text-anchor="middle" font-size="46" font-weight="bold" fill="#FFCE00" letter-spacing="6">PIZZA ARTESANAL</text><text x="800.0" y="852" text-anchor="middle" font-size="22" fill="#cdbfa8" letter-spacing="3">Reemplaza esta imagen por una foto real · hero-1</text><rect x="0" y="890" width="533.3333333333334" height="10" fill="#FFCE00"/><rect x="533.3333333333334" y="890" width="533.3333333333334" height="10" fill="#00247D"/><rect x="1066.6666666666667" y="890" width="533.3333333333334" height="10" fill="#CF142B"/></svg>