<svg xmlns="http://www.w3.org/2000/svg" viewBox="0 0 1600 900" font-family="Arial, Helvetica, sans-serif">
<defs>
  <radialGradient id="bg" cx="50%" cy="38%" r="80%">
    <stop offset="0%" stop-color="#332414"/>
    <stop offset="60%" stop-color="#211709"/>
    <stop offset="100%" stop-color="#140e07"/>
  </radialGradient>
  <radialGradient id="glow" cx="50%" cy="50%" r="50%">
    <stop offset="0%" stop-color="#FFCE00" stop-opacity="0.35"/>
    <stop offset="100%" stop-color="#FFCE00" stop-opacity="0"/>
  </radialGradient>
  <radialGradient id="cheese" cx="45%" cy="42%" r="65%">
    <stop offset="0%" stop-color="#FADD7A"/>
    <stop offset="100%" stop-color="#F5C542"/>
  </radialGradient>
  <pattern id="dots" width="26" height="26" patternUnits="userSpaceOnUse">
    <circle cx="2" cy="2" r="1.3" fill="#ffffff" opacity="0.05"/>
  </pattern>
</defs>
<rect width="1600" height="900" fill="url(#bg)"/>
<rect width="1600" height="900" fill="url(#dots)"/><ellipse cx="800.0" cy="666.8" rx="333.5" ry="63.8" fill="#000" opacity="0.45"/><circle cx="800.0" cy="400.0" r="464.0" fill="url(#glow)"/><circle cx="800.0" cy="400.0" r="290" fill="#D99A3D" stroke="#B57A26" stroke-width="11.6"/><circle cx="820.4" cy="668.9" r="6.7" fill="#B57A26" opacity="0.6"/><circle cx="615.4" cy="596.7" r="7.0" fill="#B57A26" opacity="0.6"/><circle cx="610.2" cy="208.4" r="4.6" fill="#B57A26" opacity="0.6"/><circle cx="1068.8" cy="422.3" r="8.0" fill="#B57A26" opacity="0.6"/><circle cx="784.2" cy="669.2" r="5.4" fill="#B57A26" opacity="0.6"/><circle cx="1069.6" cy="392.6" r="6.4" fill="#B57A26" opacity="0.6"/><circle cx="939.4" cy="169.1" r="6.4" fill="#B57A26" opacity="0.6"/><circle cx="626.9" cy="193.2" r="5.0" fill="#B57A26" opacity="0.6"/><circle cx="621.5" cy="197.9" r="8.1" fill="#B57A26" opacity="0.6"/><circle cx="533.2" cy="360.9" r="7.6" fill="#B57A26" opacity="0.6"/><circle cx="672.2" cy="162.5" r="4.6" fill="#B57A26" opacity="0.6"/><circle cx="813.9" cy="130.7" r="6.9" fill="#B57A26" opacity="0.6"/><circle cx="714.6" cy="655.8" r="4.5" fill="#B57A26" opacity="0.6"/><circle cx="979.0" cy="198.3" r="6.4" fill="#B57A26" opacity="0.6"/><circle cx="800.0" cy="400.0" r="237.79999999999998" fill="url(#cheese)"/><circle cx="800.0" cy="400.0" r="237.79999999999998" fill="none" stroke="#C44D20" stroke-width="7.25" opacity="0.7"/><line x1="572.6" y1="353.9" x2="1027.4" y2="446.1" stroke="#D9A93F" stroke-width="3.48" opacity="0.8"/><line x1="671.8" y1="206.6" x2="928.2" y2="593.4" stroke="#D9A93F" stroke-width="3.48" opacity="0.8"/><line x1="846.1" y1="172.6" x2="753.9" y2="627.4" stroke="#D9A93F" stroke-width="3.48" opacity="0.8"/><line x1="993.4" y1="271.8" x2="606.6" y2="528.2" stroke="#D9A93F" stroke-width="3.48" opacity="0.8"/><rect x="744.6" y="230.1" width="49.3" height="29.6" rx="7.4" fill="#FFE08A" stroke="#E0AE3A" stroke-width="2" transform="rotate(64 769.2 244.8)"/><rect x="859.0" y="340.0" width="49.3" height="29.6" rx="7.4" fill="#FFE08A" stroke="#E0AE3A" stroke-width="2" transform="rotate(72 883.6 354.8)"/><rect x="619.7" y="441.7" width="49.3" height="29.6" rx="7.4" fill="#FFE08A" stroke="#E0AE3A" stroke-width="2" transform="rotate(79 644.3 456.5)"/><rect x="825.5" y="420.4" width="49.3" height="29.6" rx="7.4" fill="#FFE08A" stroke="#E0AE3A" stroke-width="2" transform="rotate(20 850.1 435.2)"/><rect x="873.4" y="363.6" width="49.3" height="29.6" rx="7.4" fill="#FFE08A" stroke="#E0AE3A" stroke-width="2" transform="rotate(56 898.1 378.4)"/><rect x="740.8" y="489.3" width="49.3" height="29.6" rx="7.4" fill="#FFE08A" stroke="#E0AE3A" stroke-width="2" transform="rotate(35 765.4 504.1)"/><rect x="704.3" y="481.8" width="49.3" height="29.6" rx="7.4" fill="#FFE08A" stroke="#E0AE3A" stroke-width="2" transform="rotate(53 729.0 496.6)"/><rect x="884.6" y="310.2" width="49.3" height="29.6" rx="7.4" fill="#FFE08A" stroke="#E0AE3A" stroke-width="2" transform="rotate(84 909.2 325.0)"/><circle cx="910.6" cy="260.0" r="20.3" fill="#F2A6B4" stroke="#D97A8C" stroke-width="2"/><circle cx="774.6" cy="352.8" r="20.3" fill="#F2A6B4" stroke="#D97A8C" stroke-width="2"/><circle cx="911.7" cy="266.0" r="20.3" fill="#F2A6B4" stroke="#D97A8C" stroke-width="2"/><circle cx="894.8" cy="335.3" r="20.3" fill="#F2A6B4" stroke="#D97A8C" stroke-width="2"/><circle cx="786.3" cy="340.7" r="20.3" fill="#F2A6B4" stroke="#D97A8C" stroke-width="2"/><circle cx="856.7" cy="299.4" r="20.3" fill="#F2A6B4" stroke="#D97A8C" stroke-width="2"/><text x="800.0" y="808" text-anchor="middle" font-size="46" font-weight="bold" fill="#FFCE00" letter-spacing="6">PIZZA HAWAIANA</text><text x="800.0" y="852" text-anchor="middle" font-size="22" fill="#cdbfa8" letter-spacing="3">Reemplaza esta imagen por una foto real · hero-3</text><rect x="0" y="890" width="533.3333333333334" height="10" fill="#FFCE00"/><rect x="533.3333333333334" y="890" width="533.3333333333334" height="10" fill="#00247D"/><rect x="1066.6666666666667" y="890" width="533.3333333333334" height="10" fill="#CF142B"/></svg>