<svg xmlns="http://www.w3.org/2000/svg" viewBox="0 0 1600 900" font-family="Arial, Helvetica, sans-serif">
<defs>
  <radialGradient id="bg" cx="50%" cy="38%" r="80%">
    <stop offset="0%" stop-color="#332414"/>
    <stop offset="60%" stop-color="#211709"/>
    <stop offset="100%" stop-color="#140e07"/>
  </radialGradient>
  <radialGradient id="glow" cx="50%" cy="50%" r="50%">
    <stop offset="0%" stop-color="#FFCE00" stop-opacity="0.35"/>
    <stop offset="100%" stop-color="#FFCE00" stop-opacity="0"/>
  </radialGradient>
  <radialGradient id="cheese" cx="45%" cy="42%" r="65%">
    <stop offset="0%" stop-color="#FADD7A"/>
    <stop offset="100%" stop-color="#F5C542"/>
  </radialGradient>
  <pattern id="dots" width="26" height="26" patternUnits="userSpaceOnUse">
    <circle cx="2" cy="2" r="1.3" fill="#ffffff" opacity="0.05"/>
  </pattern>
</defs>
<rect width="1600" height="900" fill="url(#bg)"/>
<rect width="1600" height="900" fill="url(#dots)"/><ellipse cx="800.0" cy="480.0" rx="220.0" ry="40.0" fill="#000" opacity="0.45"/><circle cx="800.0" cy="390.0" r="260.0" fill="url(#glow)"/><g transform="rotate(-38 630.0 440.0)"><rect x="630.0" y="406.0" width="340.0" height="68.0" rx="34.0" fill="#E8B55C" stroke="#C18A33" stroke-width="6.0"/><line x1="680.0" y1="406.0" x2="680.0" y2="474.0" stroke="#C18A33" stroke-width="4.0" opacity="0.7"/><line x1="760.0" y1="406.0" x2="760.0" y2="474.0" stroke="#C18A33" stroke-width="4.0" opacity="0.7"/><line x1="840.0" y1="406.0" x2="840.0" y2="474.0" stroke="#C18A33" stroke-width="4.0" opacity="0.7"/></g><g transform="rotate(-19 646.0 440.0)"><rect x="646.0" y="406.0" width="340.0" height="68.0" rx="34.0" fill="#E8B55C" stroke="#C18A33" stroke-width="6.0"/><line x1="696.0" y1="406.0" x2="696.0" y2="474.0" stroke="#C18A33" stroke-width="4.0" opacity="0.7"/><line x1="776.0" y1="406.0" x2="776.0" y2="474.0" stroke="#C18A33" stroke-width="4.0" opacity="0.7"/><line x1="856.0" y1="406.0" x2="856.0" y2="474.0" stroke="#C18A33" stroke-width="4.0" opacity="0.7"/></g><g transform="rotate(0 662.0 440.0)"><rect x="662.0" y="406.0" width="340.0" height="68.0" rx="34.0" fill="#E8B55C" stroke="#C18A33" stroke-width="6.0"/><line x1="712.0" y1="406.0" x2="712.0" y2="474.0" stroke="#C18A33" stroke-width="4.0" opacity="0.7"/><line x1="792.0" y1="406.0" x2="792.0" y2="474.0" stroke="#C18A33" stroke-width="4.0" opacity="0.7"/><line x1="872.0" y1="406.0" x2="872.0" y2="474.0" stroke="#C18A33" stroke-width="4.0" opacity="0.7"/></g><g transform="rotate(19 678.0 440.0)"><rect x="678.0" y="406.0" width="340.0" height="68.0" rx="34.0" fill="#E8B55C" stroke="#C18A33" stroke-width="6.0"/><line x1="728.0" y1="406.0" x2="728.0" y2="474.0" stroke="#C18A33" stroke-width="4.0" opacity="0.7"/><line x1="808.0" y1="406.0" x2="808.0" y2="474.0" stroke="#C18A33" stroke-width="4.0" opacity="0.7"/><line x1="888.0" y1="406.0" x2="888.0" y2="474.0" stroke="#C18A33" stroke-width="4.0" opacity="0.7"/></g><g transform="rotate(38 694.0 440.0)"><rect x="694.0" y="406.0" width="340.0" height="68.0" rx="34.0" fill="#E8B55C" stroke="#C18A33" stroke-width="6.0"/><line x1="744.0" y1="406.0" x2="744.0" y2="474.0" stroke="#C18A33" stroke-width="4.0" opacity="0.7"/><line x1="824.0" y1="406.0" x2="824.0" y2="474.0" stroke="#C18A33" stroke-width="4.0" opacity="0.7"/><line x1="904.0" y1="406.0" x2="904.0" y2="474.0" stroke="#C18A33" stroke-width="4.0" opacity="0.7"/></g><text x="800.0" y="808" text-anchor="middle" font-size="46" font-weight="bold" fill="#FFCE00" letter-spacing="6">TEQUEÑOS</text><text x="800.0" y="852" text-anchor="middle" font-size="22" fill="#cdbfa8" letter-spacing="3">Reemplaza esta imagen por una foto real · hero-4</text><rect x="0" y="890" width="533.3333333333334" height="10" fill="#FFCE00"/><rect x="533.3333333333334" y="890" width="533.3333333333334" height="10" fill="#00247D"/><rect x="1066.6666666666667" y="890" width="533.3333333333334" height="10" fill="#CF142B"/></svg>