<svg xmlns="http://www.w3.org/2000/svg" viewBox="0 0 1200 900" font-family="Arial, Helvetica, sans-serif">
<defs>
  <radialGradient id="bg" cx="50%" cy="38%" r="80%">
    <stop offset="0%" stop-color="#332414"/>
    <stop offset="60%" stop-color="#211709"/>
    <stop offset="100%" stop-color="#140e07"/>
  </radialGradient>
  <radialGradient id="glow" cx="50%" cy="50%" r="50%">
    <stop offset="0%" stop-color="#FFCE00" stop-opacity="0.35"/>
    <stop offset="100%" stop-color="#FFCE00" stop-opacity="0"/>
  </radialGradient>
  <radialGradient id="cheese" cx="45%" cy="42%" r="65%">
    <stop offset="0%" stop-color="#FADD7A"/>
    <stop offset="100%" stop-color="#F5C542"/>
  </radialGradient>
  <pattern id="dots" width="26" height="26" patternUnits="userSpaceOnUse">
    <circle cx="2" cy="2" r="1.3" fill="#ffffff" opacity="0.05"/>
  </pattern>
</defs>
<rect width="1200" height="900" fill="url(#bg)"/>
<rect width="1200" height="900" fill="url(#dots)"/><circle cx="600" cy="400" r="420" fill="url(#glow)"/><g transform="translate(600 380)"><path d="M0 130 C -160 10 -150 -120 -60 -120 C -15 -120 0 -80 0 -80 C 0 -80 15 -120 60 -120 C 150 -120 160 10 0 130 Z" fill="#CF142B" stroke="#8E1020" stroke-width="8"/><rect x="-210" y="-230" width="120" height="80" rx="10" fill="#FFCE00"/><rect x="-210" y="-203" width="120" height="27" fill="#00247D"/><rect x="-210" y="-176" width="120" height="27" fill="#CF142B" opacity="0.95"/><rect x="90" y="-230" width="120" height="80" rx="10" fill="#fff"/><rect x="90" y="-230" width="40" height="80" fill="#CF142B"/><rect x="170" y="-230" width="40" height="80" fill="#CF142B"/></g><text x="600.0" y="808" text-anchor="middle" font-size="46" font-weight="bold" fill="#FFCE00" letter-spacing="6">NUESTRA FAMILIA</text><text x="600.0" y="852" text-anchor="middle" font-size="22" fill="#cdbfa8" letter-spacing="3">Reemplaza esta imagen por una foto real de la familia</text><rect x="0" y="890" width="400.0" height="10" fill="#FFCE00"/><rect x="400.0" y="890" width="400.0" height="10" fill="#00247D"/><rect x="800.0" y="890" width="400.0" height="10" fill="#CF142B"/></svg>