<svg xmlns="http://www.w3.org/2000/svg" viewBox="0 0 800 800" font-family="Arial, Helvetica, sans-serif">
<defs>
  <radialGradient id="bg" cx="50%" cy="38%" r="80%">
    <stop offset="0%" stop-color="#332414"/>
    <stop offset="60%" stop-color="#211709"/>
    <stop offset="100%" stop-color="#140e07"/>
  </radialGradient>
  <radialGradient id="glow" cx="50%" cy="50%" r="50%">
    <stop offset="0%" stop-color="#FFCE00" stop-opacity="0.35"/>
    <stop offset="100%" stop-color="#FFCE00" stop-opacity="0"/>
  </radialGradient>
  <radialGradient id="cheese" cx="45%" cy="42%" r="65%">
    <stop offset="0%" stop-color="#FADD7A"/>
    <stop offset="100%" stop-color="#F5C542"/>
  </radialGradient>
  <pattern id="dots" width="26" height="26" patternUnits="userSpaceOnUse">
    <circle cx="2" cy="2" r="1.3" fill="#ffffff" opacity="0.05"/>
  </pattern>
</defs>
<rect width="800" height="800" fill="url(#bg)"/>
<rect width="800" height="800" fill="url(#dots)"/><ellipse cx="400.0" cy="557.0" rx="258.75" ry="49.5" fill="#000" opacity="0.45"/><circle cx="400.0" cy="350.0" r="360.0" fill="url(#glow)"/><circle cx="400.0" cy="350.0" r="225" fill="#D99A3D" stroke="#B57A26" stroke-width="9.0"/><circle cx="388.2" cy="558.9" r="5.7" fill="#B57A26" opacity="0.6"/><circle cx="315.8" cy="158.4" r="6.2" fill="#B57A26" opacity="0.6"/><circle cx="482.2" cy="542.4" r="4.2" fill="#B57A26" opacity="0.6"/><circle cx="526.0" cy="517.1" r="4.1" fill="#B57A26" opacity="0.6"/><circle cx="379.0" cy="141.8" r="3.8" fill="#B57A26" opacity="0.6"/><circle cx="194.8" cy="309.1" r="4.1" fill="#B57A26" opacity="0.6"/><circle cx="342.1" cy="551.1" r="4.8" fill="#B57A26" opacity="0.6"/><circle cx="509.5" cy="171.7" r="5.4" fill="#B57A26" opacity="0.6"/><circle cx="608.4" cy="368.9" r="4.3" fill="#B57A26" opacity="0.6"/><circle cx="526.5" cy="516.7" r="6.3" fill="#B57A26" opacity="0.6"/><circle cx="476.7" cy="155.3" r="6.1" fill="#B57A26" opacity="0.6"/><circle cx="496.6" cy="164.4" r="5.9" fill="#B57A26" opacity="0.6"/><circle cx="598.7" cy="284.5" r="6.1" fill="#B57A26" opacity="0.6"/><circle cx="391.2" cy="559.1" r="6.2" fill="#B57A26" opacity="0.6"/><circle cx="400.0" cy="350.0" r="184.5" fill="url(#cheese)"/><circle cx="400.0" cy="350.0" r="184.5" fill="none" stroke="#C44D20" stroke-width="5.625" opacity="0.7"/><line x1="223.6" y1="314.2" x2="576.4" y2="385.8" stroke="#D9A93F" stroke-width="2.7" opacity="0.8"/><line x1="300.5" y1="200.0" x2="499.5" y2="500.0" stroke="#D9A93F" stroke-width="2.7" opacity="0.8"/><line x1="435.8" y1="173.6" x2="364.2" y2="526.4" stroke="#D9A93F" stroke-width="2.7" opacity="0.8"/><line x1="550.0" y1="250.5" x2="250.0" y2="449.5" stroke="#D9A93F" stroke-width="2.7" opacity="0.8"/><circle cx="286.8" cy="359.4" r="19.6" fill="#C0392B" stroke="#8E2418" stroke-width="3.5"/><circle cx="334.7" cy="380.9" r="18.7" fill="#C0392B" stroke="#8E2418" stroke-width="3.4"/><circle cx="382.0" cy="392.5" r="21.3" fill="#C0392B" stroke="#8E2418" stroke-width="3.8"/><circle cx="441.2" cy="218.3" r="20.4" fill="#C0392B" stroke="#8E2418" stroke-width="3.7"/><circle cx="293.6" cy="312.3" r="16.7" fill="#C0392B" stroke="#8E2418" stroke-width="3.0"/><circle cx="364.2" cy="277.7" r="16.9" fill="#C0392B" stroke="#8E2418" stroke-width="3.0"/><circle cx="426.1" cy="435.1" r="17.5" fill="#C0392B" stroke="#8E2418" stroke-width="3.1"/><circle cx="305.4" cy="374.6" r="18.4" fill="#C0392B" stroke="#8E2418" stroke-width="3.3"/><circle cx="458.3" cy="412.7" r="17.3" fill="#C0392B" stroke="#8E2418" stroke-width="3.1"/><circle cx="404.2" cy="396.8" r="5.6" fill="#3E7C3A"/><circle cx="378.8" cy="373.6" r="5.6" fill="#3E7C3A"/><circle cx="317.0" cy="233.9" r="5.6" fill="#3E7C3A"/><circle cx="313.0" cy="422.2" r="5.6" fill="#3E7C3A"/><circle cx="425.5" cy="338.6" r="5.6" fill="#3E7C3A"/><circle cx="478.0" cy="446.5" r="5.6" fill="#3E7C3A"/><circle cx="454.2" cy="262.4" r="5.6" fill="#3E7C3A"/><text x="400.0" y="708" text-anchor="middle" font-size="46" font-weight="bold" fill="#FFCE00" letter-spacing="6">AMERICANA</text><text x="400.0" y="752" text-anchor="middle" font-size="22" fill="#cdbfa8" letter-spacing="3">Foto galería 4 · reemplazar</text><rect x="0" y="790" width="266.6666666666667" height="10" fill="#FFCE00"/><rect x="266.6666666666667" y="790" width="266.6666666666667" height="10" fill="#00247D"/><rect x="533.3333333333334" y="790" width="266.6666666666667" height="10" fill="#CF142B"/></svg>