<svg xmlns="http://www.w3.org/2000/svg" viewBox="0 0 800 800" font-family="Arial, Helvetica, sans-serif">
<defs>
  <radialGradient id="bg" cx="50%" cy="38%" r="80%">
    <stop offset="0%" stop-color="#332414"/>
    <stop offset="60%" stop-color="#211709"/>
    <stop offset="100%" stop-color="#140e07"/>
  </radialGradient>
  <radialGradient id="glow" cx="50%" cy="50%" r="50%">
    <stop offset="0%" stop-color="#FFCE00" stop-opacity="0.35"/>
    <stop offset="100%" stop-color="#FFCE00" stop-opacity="0"/>
  </radialGradient>
  <radialGradient id="cheese" cx="45%" cy="42%" r="65%">
    <stop offset="0%" stop-color="#FADD7A"/>
    <stop offset="100%" stop-color="#F5C542"/>
  </radialGradient>
  <pattern id="dots" width="26" height="26" patternUnits="userSpaceOnUse">
    <circle cx="2" cy="2" r="1.3" fill="#ffffff" opacity="0.05"/>
  </pattern>
</defs>
<rect width="800" height="800" fill="url(#bg)"/>
<rect width="800" height="800" fill="url(#dots)"/><circle cx="400.0" cy="370.0" r="280.8" fill="url(#glow)"/><rect x="181.6" y="284.2" width="436.8" height="234.0" rx="10.92" fill="#3A2A1A" stroke="#56402a" stroke-width="3.9000000000000004"/><path d="M 181.6 284.2 h 72.8 v 35.88 a 36.4 23.400000000000002 0 0 1 -72.8 0 Z" fill="#FFCE00"/><path d="M 254.39999999999998 284.2 h 72.8 v 35.88 a 36.4 23.400000000000002 0 0 1 -72.8 0 Z" fill="#00247D"/><path d="M 327.2 284.2 h 72.8 v 35.88 a 36.4 23.400000000000002 0 0 1 -72.8 0 Z" fill="#CF142B"/><path d="M 400.0 284.2 h 72.8 v 35.88 a 36.4 23.400000000000002 0 0 1 -72.8 0 Z" fill="#FFCE00"/><path d="M 472.79999999999995 284.2 h 72.8 v 35.88 a 36.4 23.400000000000002 0 0 1 -72.8 0 Z" fill="#00247D"/><path d="M 545.6 284.2 h 72.8 v 35.88 a 36.4 23.400000000000002 0 0 1 -72.8 0 Z" fill="#CF142B"/><rect x="361.0" y="370.0" width="78.0" height="148.20000000000002" rx="7.800000000000001" fill="#1d1409" stroke="#56402a" stroke-width="3.12"/><rect x="216.7" y="377.8" width="93.60000000000001" height="70.2" rx="6.24" fill="#FFD86B" opacity="0.85"/><rect x="489.69999999999993" y="377.8" width="93.60000000000001" height="70.2" rx="6.24" fill="#FFD86B" opacity="0.85"/><rect x="267.4" y="248.32" width="265.2" height="40.56" rx="9.36" fill="#CF142B"/><text x="400.0" y="276.4" text-anchor="middle" font-size="23.400000000000002" font-weight="bold" fill="#fff" letter-spacing="2">SABOR LLANERO</text><text x="400.0" y="708" text-anchor="middle" font-size="46" font-weight="bold" fill="#FFCE00" letter-spacing="6">EL LOCAL</text><text x="400.0" y="752" text-anchor="middle" font-size="22" fill="#cdbfa8" letter-spacing="3">Foto galería 7 · reemplazar</text><rect x="0" y="790" width="266.6666666666667" height="10" fill="#FFCE00"/><rect x="266.6666666666667" y="790" width="266.6666666666667" height="10" fill="#00247D"/><rect x="533.3333333333334" y="790" width="266.6666666666667" height="10" fill="#CF142B"/></svg>