<svg xmlns="http://www.w3.org/2000/svg" viewBox="0 0 800 800" font-family="Arial, Helvetica, sans-serif">
<defs>
  <radialGradient id="bg" cx="50%" cy="38%" r="80%">
    <stop offset="0%" stop-color="#332414"/>
    <stop offset="60%" stop-color="#211709"/>
    <stop offset="100%" stop-color="#140e07"/>
  </radialGradient>
  <radialGradient id="glow" cx="50%" cy="50%" r="50%">
    <stop offset="0%" stop-color="#FFCE00" stop-opacity="0.35"/>
    <stop offset="100%" stop-color="#FFCE00" stop-opacity="0"/>
  </radialGradient>
  <radialGradient id="cheese" cx="45%" cy="42%" r="65%">
    <stop offset="0%" stop-color="#FADD7A"/>
    <stop offset="100%" stop-color="#F5C542"/>
  </radialGradient>
  <pattern id="dots" width="26" height="26" patternUnits="userSpaceOnUse">
    <circle cx="2" cy="2" r="1.3" fill="#ffffff" opacity="0.05"/>
  </pattern>
</defs>
<rect width="800" height="800" fill="url(#bg)"/>
<rect width="800" height="800" fill="url(#dots)"/><ellipse cx="400.0" cy="557.0" rx="258.75" ry="49.5" fill="#000" opacity="0.45"/><circle cx="400.0" cy="350.0" r="360.0" fill="url(#glow)"/><circle cx="400.0" cy="350.0" r="225" fill="#D99A3D" stroke="#B57A26" stroke-width="9.0"/><circle cx="200.0" cy="411.7" r="5.3" fill="#B57A26" opacity="0.6"/><circle cx="586.0" cy="254.1" r="4.9" fill="#B57A26" opacity="0.6"/><circle cx="191.0" cy="339.7" r="5.4" fill="#B57A26" opacity="0.6"/><circle cx="483.5" cy="541.9" r="5.1" fill="#B57A26" opacity="0.6"/><circle cx="256.6" cy="197.6" r="6.1" fill="#B57A26" opacity="0.6"/><circle cx="573.7" cy="466.7" r="4.4" fill="#B57A26" opacity="0.6"/><circle cx="576.2" cy="462.9" r="6.1" fill="#B57A26" opacity="0.6"/><circle cx="327.2" cy="153.8" r="3.5" fill="#B57A26" opacity="0.6"/><circle cx="607.9" cy="326.6" r="6.6" fill="#B57A26" opacity="0.6"/><circle cx="281.2" cy="177.7" r="5.5" fill="#B57A26" opacity="0.6"/><circle cx="514.9" cy="524.9" r="3.4" fill="#B57A26" opacity="0.6"/><circle cx="194.1" cy="312.9" r="3.6" fill="#B57A26" opacity="0.6"/><circle cx="476.8" cy="544.7" r="4.2" fill="#B57A26" opacity="0.6"/><circle cx="605.5" cy="389.3" r="4.9" fill="#B57A26" opacity="0.6"/><circle cx="400.0" cy="350.0" r="184.5" fill="url(#cheese)"/><circle cx="400.0" cy="350.0" r="184.5" fill="none" stroke="#C44D20" stroke-width="5.625" opacity="0.7"/><line x1="223.6" y1="314.2" x2="576.4" y2="385.8" stroke="#D9A93F" stroke-width="2.7" opacity="0.8"/><line x1="300.5" y1="200.0" x2="499.5" y2="500.0" stroke="#D9A93F" stroke-width="2.7" opacity="0.8"/><line x1="435.8" y1="173.6" x2="364.2" y2="526.4" stroke="#D9A93F" stroke-width="2.7" opacity="0.8"/><line x1="550.0" y1="250.5" x2="250.0" y2="449.5" stroke="#D9A93F" stroke-width="2.7" opacity="0.8"/><rect x="270.0" y="382.0" width="38.2" height="22.9" rx="5.7" fill="#FFE08A" stroke="#E0AE3A" stroke-width="2" transform="rotate(47 289.2 393.5)"/><rect x="327.2" y="273.4" width="38.2" height="22.9" rx="5.7" fill="#FFE08A" stroke="#E0AE3A" stroke-width="2" transform="rotate(60 346.4 284.9)"/><rect x="321.2" y="354.9" width="38.2" height="22.9" rx="5.7" fill="#FFE08A" stroke="#E0AE3A" stroke-width="2" transform="rotate(90 340.3 366.4)"/><rect x="499.7" y="335.3" width="38.2" height="22.9" rx="5.7" fill="#FFE08A" stroke="#E0AE3A" stroke-width="2" transform="rotate(64 518.8 346.8)"/><rect x="358.1" y="390.8" width="38.2" height="22.9" rx="5.7" fill="#FFE08A" stroke="#E0AE3A" stroke-width="2" transform="rotate(26 377.3 402.3)"/><rect x="481.5" y="386.1" width="38.2" height="22.9" rx="5.7" fill="#FFE08A" stroke="#E0AE3A" stroke-width="2" transform="rotate(36 500.7 397.5)"/><rect x="422.4" y="278.7" width="38.2" height="22.9" rx="5.7" fill="#FFE08A" stroke="#E0AE3A" stroke-width="2" transform="rotate(86 441.6 290.1)"/><rect x="400.3" y="310.8" width="38.2" height="22.9" rx="5.7" fill="#FFE08A" stroke="#E0AE3A" stroke-width="2" transform="rotate(19 419.4 322.3)"/><circle cx="465.5" cy="308.6" r="15.8" fill="#F2A6B4" stroke="#D97A8C" stroke-width="2"/><circle cx="468.5" cy="341.5" r="15.8" fill="#F2A6B4" stroke="#D97A8C" stroke-width="2"/><circle cx="486.2" cy="392.6" r="15.8" fill="#F2A6B4" stroke="#D97A8C" stroke-width="2"/><circle cx="409.6" cy="296.8" r="15.8" fill="#F2A6B4" stroke="#D97A8C" stroke-width="2"/><circle cx="452.4" cy="382.0" r="15.8" fill="#F2A6B4" stroke="#D97A8C" stroke-width="2"/><circle cx="508.4" cy="325.1" r="15.8" fill="#F2A6B4" stroke="#D97A8C" stroke-width="2"/><text x="400.0" y="708" text-anchor="middle" font-size="46" font-weight="bold" fill="#FFCE00" letter-spacing="6">HAWAIANA</text><text x="400.0" y="752" text-anchor="middle" font-size="22" fill="#cdbfa8" letter-spacing="3">Foto galería 2 · reemplazar</text><rect x="0" y="790" width="266.6666666666667" height="10" fill="#FFCE00"/><rect x="266.6666666666667" y="790" width="266.6666666666667" height="10" fill="#00247D"/><rect x="533.3333333333334" y="790" width="266.6666666666667" height="10" fill="#CF142B"/></svg>