<svg xmlns="http://www.w3.org/2000/svg" viewBox="0 0 800 800" font-family="Arial, Helvetica, sans-serif">
<defs>
  <radialGradient id="bg" cx="50%" cy="38%" r="80%">
    <stop offset="0%" stop-color="#332414"/>
    <stop offset="60%" stop-color="#211709"/>
    <stop offset="100%" stop-color="#140e07"/>
  </radialGradient>
  <radialGradient id="glow" cx="50%" cy="50%" r="50%">
    <stop offset="0%" stop-color="#FFCE00" stop-opacity="0.35"/>
    <stop offset="100%" stop-color="#FFCE00" stop-opacity="0"/>
  </radialGradient>
  <radialGradient id="cheese" cx="45%" cy="42%" r="65%">
    <stop offset="0%" stop-color="#FADD7A"/>
    <stop offset="100%" stop-color="#F5C542"/>
  </radialGradient>
  <pattern id="dots" width="26" height="26" patternUnits="userSpaceOnUse">
    <circle cx="2" cy="2" r="1.3" fill="#ffffff" opacity="0.05"/>
  </pattern>
</defs>
<rect width="800" height="800" fill="url(#bg)"/>
<rect width="800" height="800" fill="url(#dots)"/><ellipse cx="400.0" cy="416.5" rx="187.0" ry="34.0" fill="#000" opacity="0.45"/><circle cx="400.0" cy="340.0" r="221.0" fill="url(#glow)"/><g transform="rotate(-38 255.5 382.5)"><rect x="255.5" y="353.6" width="289.0" height="57.8" rx="28.9" fill="#E8B55C" stroke="#C18A33" stroke-width="5.1"/><line x1="298.0" y1="353.6" x2="298.0" y2="411.4" stroke="#C18A33" stroke-width="3.4" opacity="0.7"/><line x1="366.0" y1="353.6" x2="366.0" y2="411.4" stroke="#C18A33" stroke-width="3.4" opacity="0.7"/><line x1="434.0" y1="353.6" x2="434.0" y2="411.4" stroke="#C18A33" stroke-width="3.4" opacity="0.7"/></g><g transform="rotate(-19 269.1 382.5)"><rect x="269.1" y="353.6" width="289.0" height="57.8" rx="28.9" fill="#E8B55C" stroke="#C18A33" stroke-width="5.1"/><line x1="311.6" y1="353.6" x2="311.6" y2="411.4" stroke="#C18A33" stroke-width="3.4" opacity="0.7"/><line x1="379.6" y1="353.6" x2="379.6" y2="411.4" stroke="#C18A33" stroke-width="3.4" opacity="0.7"/><line x1="447.6" y1="353.6" x2="447.6" y2="411.4" stroke="#C18A33" stroke-width="3.4" opacity="0.7"/></g><g transform="rotate(0 282.7 382.5)"><rect x="282.7" y="353.6" width="289.0" height="57.8" rx="28.9" fill="#E8B55C" stroke="#C18A33" stroke-width="5.1"/><line x1="325.2" y1="353.6" x2="325.2" y2="411.4" stroke="#C18A33" stroke-width="3.4" opacity="0.7"/><line x1="393.2" y1="353.6" x2="393.2" y2="411.4" stroke="#C18A33" stroke-width="3.4" opacity="0.7"/><line x1="461.2" y1="353.6" x2="461.2" y2="411.4" stroke="#C18A33" stroke-width="3.4" opacity="0.7"/></g><g transform="rotate(19 296.3 382.5)"><rect x="296.3" y="353.6" width="289.0" height="57.8" rx="28.9" fill="#E8B55C" stroke="#C18A33" stroke-width="5.1"/><line x1="338.8" y1="353.6" x2="338.8" y2="411.4" stroke="#C18A33" stroke-width="3.4" opacity="0.7"/><line x1="406.8" y1="353.6" x2="406.8" y2="411.4" stroke="#C18A33" stroke-width="3.4" opacity="0.7"/><line x1="474.8" y1="353.6" x2="474.8" y2="411.4" stroke="#C18A33" stroke-width="3.4" opacity="0.7"/></g><g transform="rotate(38 309.9 382.5)"><rect x="309.9" y="353.6" width="289.0" height="57.8" rx="28.9" fill="#E8B55C" stroke="#C18A33" stroke-width="5.1"/><line x1="352.4" y1="353.6" x2="352.4" y2="411.4" stroke="#C18A33" stroke-width="3.4" opacity="0.7"/><line x1="420.4" y1="353.6" x2="420.4" y2="411.4" stroke="#C18A33" stroke-width="3.4" opacity="0.7"/><line x1="488.4" y1="353.6" x2="488.4" y2="411.4" stroke="#C18A33" stroke-width="3.4" opacity="0.7"/></g><text x="400.0" y="708" text-anchor="middle" font-size="46" font-weight="bold" fill="#FFCE00" letter-spacing="6">TEQUEÑOS</text><text x="400.0" y="752" text-anchor="middle" font-size="22" fill="#cdbfa8" letter-spacing="3">Foto galería 5 · reemplazar</text><rect x="0" y="790" width="266.6666666666667" height="10" fill="#FFCE00"/><rect x="266.6666666666667" y="790" width="266.6666666666667" height="10" fill="#00247D"/><rect x="533.3333333333334" y="790" width="266.6666666666667" height="10" fill="#CF142B"/></svg>