<svg xmlns="http://www.w3.org/2000/svg" viewBox="0 0 800 800" font-family="Arial, Helvetica, sans-serif">
<defs>
  <radialGradient id="bg" cx="50%" cy="38%" r="80%">
    <stop offset="0%" stop-color="#332414"/>
    <stop offset="60%" stop-color="#211709"/>
    <stop offset="100%" stop-color="#140e07"/>
  </radialGradient>
  <radialGradient id="glow" cx="50%" cy="50%" r="50%">
    <stop offset="0%" stop-color="#FFCE00" stop-opacity="0.35"/>
    <stop offset="100%" stop-color="#FFCE00" stop-opacity="0"/>
  </radialGradient>
  <radialGradient id="cheese" cx="45%" cy="42%" r="65%">
    <stop offset="0%" stop-color="#FADD7A"/>
    <stop offset="100%" stop-color="#F5C542"/>
  </radialGradient>
  <pattern id="dots" width="26" height="26" patternUnits="userSpaceOnUse">
    <circle cx="2" cy="2" r="1.3" fill="#ffffff" opacity="0.05"/>
  </pattern>
</defs>
<rect width="800" height="800" fill="url(#bg)"/>
<rect width="800" height="800" fill="url(#dots)"/><ellipse cx="400.0" cy="557.0" rx="258.75" ry="49.5" fill="#000" opacity="0.45"/><circle cx="400.0" cy="350.0" r="360.0" fill="url(#glow)"/><circle cx="400.0" cy="350.0" r="225" fill="#D99A3D" stroke="#B57A26" stroke-width="9.0"/><circle cx="193.4" cy="383.3" r="5.6" fill="#B57A26" opacity="0.6"/><circle cx="295.1" cy="169.0" r="3.9" fill="#B57A26" opacity="0.6"/><circle cx="608.8" cy="364.3" r="4.6" fill="#B57A26" opacity="0.6"/><circle cx="368.5" cy="556.9" r="6.1" fill="#B57A26" opacity="0.6"/><circle cx="323.7" cy="155.2" r="5.4" fill="#B57A26" opacity="0.6"/><circle cx="204.6" cy="275.2" r="5.6" fill="#B57A26" opacity="0.6"/><circle cx="527.9" cy="515.6" r="4.9" fill="#B57A26" opacity="0.6"/><circle cx="509.6" cy="528.3" r="6.4" fill="#B57A26" opacity="0.6"/><circle cx="595.1" cy="425.6" r="6.1" fill="#B57A26" opacity="0.6"/><circle cx="586.7" cy="444.5" r="5.7" fill="#B57A26" opacity="0.6"/><circle cx="291.2" cy="528.8" r="4.7" fill="#B57A26" opacity="0.6"/><circle cx="514.8" cy="175.0" r="3.4" fill="#B57A26" opacity="0.6"/><circle cx="594.2" cy="428.0" r="6.5" fill="#B57A26" opacity="0.6"/><circle cx="191.1" cy="338.3" r="3.7" fill="#B57A26" opacity="0.6"/><circle cx="400.0" cy="350.0" r="184.5" fill="url(#cheese)"/><circle cx="400.0" cy="350.0" r="184.5" fill="none" stroke="#C44D20" stroke-width="5.625" opacity="0.7"/><line x1="223.6" y1="314.2" x2="576.4" y2="385.8" stroke="#D9A93F" stroke-width="2.7" opacity="0.8"/><line x1="300.5" y1="200.0" x2="499.5" y2="500.0" stroke="#D9A93F" stroke-width="2.7" opacity="0.8"/><line x1="435.8" y1="173.6" x2="364.2" y2="526.4" stroke="#D9A93F" stroke-width="2.7" opacity="0.8"/><line x1="550.0" y1="250.5" x2="250.0" y2="449.5" stroke="#D9A93F" stroke-width="2.7" opacity="0.8"/><circle cx="545.0" cy="338.3" r="5.0" fill="#6B3A1F"/><circle cx="373.1" cy="364.1" r="5.9" fill="#6B3A1F"/><circle cx="375.1" cy="326.2" r="7.6" fill="#6B3A1F"/><circle cx="433.7" cy="361.3" r="8.2" fill="#6B3A1F"/><circle cx="342.7" cy="391.3" r="7.2" fill="#6B3A1F"/><circle cx="334.9" cy="359.6" r="4.6" fill="#6B3A1F"/><circle cx="378.0" cy="203.3" r="8.9" fill="#6B3A1F"/><circle cx="368.1" cy="297.1" r="6.1" fill="#6B3A1F"/><circle cx="360.8" cy="250.7" r="5.0" fill="#6B3A1F"/><circle cx="405.9" cy="412.5" r="6.8" fill="#6B3A1F"/><circle cx="430.3" cy="273.7" r="4.6" fill="#6B3A1F"/><circle cx="431.8" cy="285.2" r="6.8" fill="#6B3A1F"/><circle cx="412.5" cy="420.7" r="6.2" fill="#6B3A1F"/><circle cx="403.5" cy="324.4" r="7.0" fill="#6B3A1F"/><circle cx="448.0" cy="448.9" r="4.7" fill="#6B3A1F"/><circle cx="390.0" cy="409.2" r="7.4" fill="#6B3A1F"/><circle cx="472.3" cy="374.5" r="5.4" fill="#6B3A1F"/><circle cx="384.3" cy="427.2" r="8.8" fill="#6B3A1F"/><circle cx="254.3" cy="367.5" r="5.3" fill="#6B3A1F"/><circle cx="455.9" cy="321.2" r="5.4" fill="#6B3A1F"/><circle cx="398.7" cy="209.5" r="4.5" fill="#6B3A1F"/><circle cx="386.2" cy="469.7" r="6.0" fill="#6B3A1F"/><circle cx="401.8" cy="384.6" r="18.0" fill="#C0392B" stroke="#8E2418" stroke-width="2"/><circle cx="493.4" cy="374.0" r="18.0" fill="#C0392B" stroke="#8E2418" stroke-width="2"/><circle cx="534.2" cy="336.3" r="18.0" fill="#C0392B" stroke="#8E2418" stroke-width="2"/><circle cx="363.8" cy="349.2" r="18.0" fill="#C0392B" stroke="#8E2418" stroke-width="2"/><circle cx="350.1" cy="451.9" r="18.0" fill="#C0392B" stroke="#8E2418" stroke-width="2"/><circle cx="448.5" cy="264.3" r="18.0" fill="#C0392B" stroke="#8E2418" stroke-width="2"/><text x="400.0" y="708" text-anchor="middle" font-size="46" font-weight="bold" fill="#FFCE00" letter-spacing="6">FULL BEEF</text><text x="400.0" y="752" text-anchor="middle" font-size="22" fill="#cdbfa8" letter-spacing="3">Foto galería 3 · reemplazar</text><rect x="0" y="790" width="266.6666666666667" height="10" fill="#FFCE00"/><rect x="266.6666666666667" y="790" width="266.6666666666667" height="10" fill="#00247D"/><rect x="533.3333333333334" y="790" width="266.6666666666667" height="10" fill="#CF142B"/></svg>