<svg xmlns="http://www.w3.org/2000/svg" viewBox="0 0 800 800" font-family="Arial, Helvetica, sans-serif">
<defs>
  <radialGradient id="bg" cx="50%" cy="38%" r="80%">
    <stop offset="0%" stop-color="#332414"/>
    <stop offset="60%" stop-color="#211709"/>
    <stop offset="100%" stop-color="#140e07"/>
  </radialGradient>
  <radialGradient id="glow" cx="50%" cy="50%" r="50%">
    <stop offset="0%" stop-color="#FFCE00" stop-opacity="0.35"/>
    <stop offset="100%" stop-color="#FFCE00" stop-opacity="0"/>
  </radialGradient>
  <radialGradient id="cheese" cx="45%" cy="42%" r="65%">
    <stop offset="0%" stop-color="#FADD7A"/>
    <stop offset="100%" stop-color="#F5C542"/>
  </radialGradient>
  <pattern id="dots" width="26" height="26" patternUnits="userSpaceOnUse">
    <circle cx="2" cy="2" r="1.3" fill="#ffffff" opacity="0.05"/>
  </pattern>
</defs>
<rect width="800" height="800" fill="url(#bg)"/>
<rect width="800" height="800" fill="url(#dots)"/><ellipse cx="400.0" cy="557.0" rx="258.75" ry="49.5" fill="#000" opacity="0.45"/><circle cx="400.0" cy="350.0" r="360.0" fill="url(#glow)"/><circle cx="400.0" cy="350.0" r="225" fill="#D99A3D" stroke="#B57A26" stroke-width="9.0"/><circle cx="211.5" cy="259.2" r="4.8" fill="#B57A26" opacity="0.6"/><circle cx="215.4" cy="251.4" r="4.1" fill="#B57A26" opacity="0.6"/><circle cx="481.1" cy="157.1" r="6.2" fill="#B57A26" opacity="0.6"/><circle cx="280.7" cy="178.1" r="3.9" fill="#B57A26" opacity="0.6"/><circle cx="192.5" cy="322.9" r="4.5" fill="#B57A26" opacity="0.6"/><circle cx="400.0" cy="559.2" r="6.6" fill="#B57A26" opacity="0.6"/><circle cx="609.2" cy="345.5" r="3.5" fill="#B57A26" opacity="0.6"/><circle cx="533.5" cy="188.9" r="5.4" fill="#B57A26" opacity="0.6"/><circle cx="246.0" cy="491.7" r="4.3" fill="#B57A26" opacity="0.6"/><circle cx="305.0" cy="163.6" r="4.9" fill="#B57A26" opacity="0.6"/><circle cx="317.9" cy="157.5" r="5.6" fill="#B57A26" opacity="0.6"/><circle cx="540.4" cy="505.2" r="6.0" fill="#B57A26" opacity="0.6"/><circle cx="608.0" cy="326.9" r="6.6" fill="#B57A26" opacity="0.6"/><circle cx="241.6" cy="213.3" r="3.5" fill="#B57A26" opacity="0.6"/><circle cx="400.0" cy="350.0" r="184.5" fill="url(#cheese)"/><circle cx="400.0" cy="350.0" r="184.5" fill="none" stroke="#C44D20" stroke-width="5.625" opacity="0.7"/><line x1="223.6" y1="314.2" x2="576.4" y2="385.8" stroke="#D9A93F" stroke-width="2.7" opacity="0.8"/><line x1="300.5" y1="200.0" x2="499.5" y2="500.0" stroke="#D9A93F" stroke-width="2.7" opacity="0.8"/><line x1="435.8" y1="173.6" x2="364.2" y2="526.4" stroke="#D9A93F" stroke-width="2.7" opacity="0.8"/><line x1="550.0" y1="250.5" x2="250.0" y2="449.5" stroke="#D9A93F" stroke-width="2.7" opacity="0.8"/><circle cx="447.9" cy="351.2" r="22.1" fill="#C0392B" stroke="#8E2418" stroke-width="4.0"/><circle cx="376.4" cy="418.5" r="21.8" fill="#C0392B" stroke="#8E2418" stroke-width="3.9"/><circle cx="363.9" cy="434.4" r="18.7" fill="#C0392B" stroke="#8E2418" stroke-width="3.4"/><circle cx="487.7" cy="388.0" r="21.4" fill="#C0392B" stroke="#8E2418" stroke-width="3.9"/><circle cx="431.9" cy="397.8" r="18.5" fill="#C0392B" stroke="#8E2418" stroke-width="3.3"/><circle cx="484.0" cy="369.8" r="21.3" fill="#C0392B" stroke="#8E2418" stroke-width="3.8"/><circle cx="350.7" cy="274.5" r="21.5" fill="#C0392B" stroke="#8E2418" stroke-width="3.9"/><circle cx="455.2" cy="425.7" r="18.3" fill="#C0392B" stroke="#8E2418" stroke-width="3.3"/><circle cx="363.3" cy="322.8" r="21.0" fill="#C0392B" stroke="#8E2418" stroke-width="3.8"/><circle cx="435.7" cy="374.8" r="5.6" fill="#3E7C3A"/><circle cx="450.1" cy="217.2" r="5.6" fill="#3E7C3A"/><circle cx="331.8" cy="380.4" r="5.6" fill="#3E7C3A"/><circle cx="401.6" cy="407.1" r="5.6" fill="#3E7C3A"/><circle cx="366.7" cy="319.8" r="5.6" fill="#3E7C3A"/><circle cx="458.4" cy="404.5" r="5.6" fill="#3E7C3A"/><circle cx="453.1" cy="439.7" r="5.6" fill="#3E7C3A"/><text x="400.0" y="708" text-anchor="middle" font-size="46" font-weight="bold" fill="#FFCE00" letter-spacing="6">PEPPERONI</text><text x="400.0" y="752" text-anchor="middle" font-size="22" fill="#cdbfa8" letter-spacing="3">Foto galería 1 · reemplazar</text><rect x="0" y="790" width="266.6666666666667" height="10" fill="#FFCE00"/><rect x="266.6666666666667" y="790" width="266.6666666666667" height="10" fill="#00247D"/><rect x="533.3333333333334" y="790" width="266.6666666666667" height="10" fill="#CF142B"/></svg>