<svg xmlns="http://www.w3.org/2000/svg" viewBox="0 0 800 800" font-family="Arial, Helvetica, sans-serif">
<defs>
  <radialGradient id="bg" cx="50%" cy="38%" r="80%">
    <stop offset="0%" stop-color="#332414"/>
    <stop offset="60%" stop-color="#211709"/>
    <stop offset="100%" stop-color="#140e07"/>
  </radialGradient>
  <radialGradient id="glow" cx="50%" cy="50%" r="50%">
    <stop offset="0%" stop-color="#FFCE00" stop-opacity="0.35"/>
    <stop offset="100%" stop-color="#FFCE00" stop-opacity="0"/>
  </radialGradient>
  <radialGradient id="cheese" cx="45%" cy="42%" r="65%">
    <stop offset="0%" stop-color="#FADD7A"/>
    <stop offset="100%" stop-color="#F5C542"/>
  </radialGradient>
  <pattern id="dots" width="26" height="26" patternUnits="userSpaceOnUse">
    <circle cx="2" cy="2" r="1.3" fill="#ffffff" opacity="0.05"/>
  </pattern>
</defs>
<rect width="800" height="800" fill="url(#bg)"/>
<rect width="800" height="800" fill="url(#dots)"/><ellipse cx="400.0" cy="557.0" rx="258.75" ry="49.5" fill="#000" opacity="0.45"/><circle cx="400.0" cy="350.0" r="360.0" fill="url(#glow)"/><circle cx="400.0" cy="350.0" r="225" fill="#D99A3D" stroke="#B57A26" stroke-width="9.0"/><circle cx="192.7" cy="321.2" r="6.1" fill="#B57A26" opacity="0.6"/><circle cx="602.8" cy="298.6" r="4.4" fill="#B57A26" opacity="0.6"/><circle cx="421.1" cy="141.8" r="5.8" fill="#B57A26" opacity="0.6"/><circle cx="289.4" cy="172.4" r="3.7" fill="#B57A26" opacity="0.6"/><circle cx="606.3" cy="385.2" r="4.7" fill="#B57A26" opacity="0.6"/><circle cx="395.3" cy="140.8" r="4.2" fill="#B57A26" opacity="0.6"/><circle cx="190.8" cy="347.9" r="4.4" fill="#B57A26" opacity="0.6"/><circle cx="519.1" cy="177.9" r="6.6" fill="#B57A26" opacity="0.6"/><circle cx="229.5" cy="471.3" r="6.7" fill="#B57A26" opacity="0.6"/><circle cx="593.5" cy="429.7" r="6.1" fill="#B57A26" opacity="0.6"/><circle cx="548.3" cy="202.3" r="3.9" fill="#B57A26" opacity="0.6"/><circle cx="342.3" cy="148.9" r="5.3" fill="#B57A26" opacity="0.6"/><circle cx="601.0" cy="291.9" r="4.1" fill="#B57A26" opacity="0.6"/><circle cx="197.3" cy="298.0" r="6.4" fill="#B57A26" opacity="0.6"/><circle cx="400.0" cy="350.0" r="184.5" fill="url(#cheese)"/><circle cx="400.0" cy="350.0" r="184.5" fill="none" stroke="#C44D20" stroke-width="5.625" opacity="0.7"/><line x1="223.6" y1="314.2" x2="576.4" y2="385.8" stroke="#D9A93F" stroke-width="2.7" opacity="0.8"/><line x1="300.5" y1="200.0" x2="499.5" y2="500.0" stroke="#D9A93F" stroke-width="2.7" opacity="0.8"/><line x1="435.8" y1="173.6" x2="364.2" y2="526.4" stroke="#D9A93F" stroke-width="2.7" opacity="0.8"/><line x1="550.0" y1="250.5" x2="250.0" y2="449.5" stroke="#D9A93F" stroke-width="2.7" opacity="0.8"/><circle cx="364.6" cy="307.8" r="4.9" fill="#6B3A1F"/><circle cx="472.9" cy="321.0" r="9.0" fill="#6B3A1F"/><circle cx="479.6" cy="448.2" r="8.2" fill="#6B3A1F"/><circle cx="412.1" cy="343.4" r="6.2" fill="#6B3A1F"/><circle cx="511.7" cy="387.6" r="6.1" fill="#6B3A1F"/><circle cx="462.3" cy="333.8" r="8.0" fill="#6B3A1F"/><circle cx="430.4" cy="316.7" r="7.0" fill="#6B3A1F"/><circle cx="482.9" cy="327.3" r="6.1" fill="#6B3A1F"/><circle cx="386.8" cy="472.0" r="5.4" fill="#6B3A1F"/><circle cx="328.5" cy="295.3" r="7.0" fill="#6B3A1F"/><circle cx="471.9" cy="426.0" r="8.6" fill="#6B3A1F"/><circle cx="375.5" cy="402.9" r="8.6" fill="#6B3A1F"/><circle cx="356.0" cy="326.4" r="4.5" fill="#6B3A1F"/><circle cx="401.2" cy="289.4" r="6.6" fill="#6B3A1F"/><circle cx="385.8" cy="450.0" r="7.8" fill="#6B3A1F"/><circle cx="392.0" cy="370.4" r="8.9" fill="#6B3A1F"/><circle cx="412.0" cy="342.4" r="7.0" fill="#6B3A1F"/><circle cx="373.2" cy="287.1" r="7.8" fill="#6B3A1F"/><circle cx="491.9" cy="326.3" r="6.3" fill="#6B3A1F"/><circle cx="415.7" cy="394.2" r="5.2" fill="#6B3A1F"/><circle cx="431.8" cy="376.4" r="8.3" fill="#6B3A1F"/><circle cx="278.0" cy="321.1" r="8.6" fill="#6B3A1F"/><circle cx="414.4" cy="314.0" r="18.0" fill="#C0392B" stroke="#8E2418" stroke-width="2"/><circle cx="438.6" cy="330.6" r="18.0" fill="#C0392B" stroke="#8E2418" stroke-width="2"/><circle cx="415.6" cy="232.3" r="18.0" fill="#C0392B" stroke="#8E2418" stroke-width="2"/><circle cx="359.0" cy="287.6" r="18.0" fill="#C0392B" stroke="#8E2418" stroke-width="2"/><circle cx="437.8" cy="369.2" r="18.0" fill="#C0392B" stroke="#8E2418" stroke-width="2"/><circle cx="361.9" cy="306.0" r="18.0" fill="#C0392B" stroke="#8E2418" stroke-width="2"/><text x="400.0" y="708" text-anchor="middle" font-size="46" font-weight="bold" fill="#FFCE00" letter-spacing="6">ESPECIAL</text><text x="400.0" y="752" text-anchor="middle" font-size="22" fill="#cdbfa8" letter-spacing="3">Foto galería 8 · reemplazar</text><rect x="0" y="790" width="266.6666666666667" height="10" fill="#FFCE00"/><rect x="266.6666666666667" y="790" width="266.6666666666667" height="10" fill="#00247D"/><rect x="533.3333333333334" y="790" width="266.6666666666667" height="10" fill="#CF142B"/></svg>