<svg xmlns="http://www.w3.org/2000/svg" viewBox="0 0 800 800" font-family="Arial, Helvetica, sans-serif">
<defs>
  <radialGradient id="bg" cx="50%" cy="38%" r="80%">
    <stop offset="0%" stop-color="#332414"/>
    <stop offset="60%" stop-color="#211709"/>
    <stop offset="100%" stop-color="#140e07"/>
  </radialGradient>
  <radialGradient id="glow" cx="50%" cy="50%" r="50%">
    <stop offset="0%" stop-color="#FFCE00" stop-opacity="0.35"/>
    <stop offset="100%" stop-color="#FFCE00" stop-opacity="0"/>
  </radialGradient>
  <radialGradient id="cheese" cx="45%" cy="42%" r="65%">
    <stop offset="0%" stop-color="#FADD7A"/>
    <stop offset="100%" stop-color="#F5C542"/>
  </radialGradient>
  <pattern id="dots" width="26" height="26" patternUnits="userSpaceOnUse">
    <circle cx="2" cy="2" r="1.3" fill="#ffffff" opacity="0.05"/>
  </pattern>
</defs>
<rect width="800" height="800" fill="url(#bg)"/>
<rect width="800" height="800" fill="url(#dots)"/><ellipse cx="400.0" cy="557.0" rx="258.75" ry="49.5" fill="#000" opacity="0.45"/><circle cx="400.0" cy="350.0" r="360.0" fill="url(#glow)"/><circle cx="400.0" cy="350.0" r="225" fill="#D99A3D" stroke="#B57A26" stroke-width="9.0"/><circle cx="604.3" cy="304.7" r="3.4" fill="#B57A26" opacity="0.6"/><circle cx="381.6" cy="141.6" r="3.9" fill="#B57A26" opacity="0.6"/><circle cx="608.5" cy="332.1" r="3.4" fill="#B57A26" opacity="0.6"/><circle cx="552.1" cy="206.3" r="5.7" fill="#B57A26" opacity="0.6"/><circle cx="530.7" cy="186.6" r="6.7" fill="#B57A26" opacity="0.6"/><circle cx="413.5" cy="558.8" r="4.5" fill="#B57A26" opacity="0.6"/><circle cx="345.7" cy="147.9" r="4.3" fill="#B57A26" opacity="0.6"/><circle cx="382.5" cy="558.5" r="4.1" fill="#B57A26" opacity="0.6"/><circle cx="531.2" cy="187.0" r="6.3" fill="#B57A26" opacity="0.6"/><circle cx="461.7" cy="150.0" r="4.1" fill="#B57A26" opacity="0.6"/><circle cx="586.3" cy="254.8" r="5.1" fill="#B57A26" opacity="0.6"/><circle cx="424.4" cy="557.8" r="4.9" fill="#B57A26" opacity="0.6"/><circle cx="216.7" cy="451.0" r="3.6" fill="#B57A26" opacity="0.6"/><circle cx="207.8" cy="267.3" r="4.6" fill="#B57A26" opacity="0.6"/><circle cx="400.0" cy="350.0" r="184.5" fill="url(#cheese)"/><circle cx="400.0" cy="350.0" r="184.5" fill="none" stroke="#C44D20" stroke-width="5.625" opacity="0.7"/><line x1="223.6" y1="314.2" x2="576.4" y2="385.8" stroke="#D9A93F" stroke-width="2.7" opacity="0.8"/><line x1="300.5" y1="200.0" x2="499.5" y2="500.0" stroke="#D9A93F" stroke-width="2.7" opacity="0.8"/><line x1="435.8" y1="173.6" x2="364.2" y2="526.4" stroke="#D9A93F" stroke-width="2.7" opacity="0.8"/><line x1="550.0" y1="250.5" x2="250.0" y2="449.5" stroke="#D9A93F" stroke-width="2.7" opacity="0.8"/><circle cx="270.4" cy="289.4" r="7.4" fill="#6B3A1F"/><circle cx="289.4" cy="425.1" r="9.0" fill="#6B3A1F"/><circle cx="255.1" cy="358.9" r="4.6" fill="#6B3A1F"/><circle cx="422.7" cy="377.5" r="8.7" fill="#6B3A1F"/><circle cx="358.7" cy="244.6" r="5.8" fill="#6B3A1F"/><circle cx="263.1" cy="354.3" r="4.9" fill="#6B3A1F"/><circle cx="413.4" cy="362.0" r="6.6" fill="#6B3A1F"/><circle cx="448.4" cy="274.2" r="6.3" fill="#6B3A1F"/><circle cx="363.3" cy="349.5" r="8.8" fill="#6B3A1F"/><circle cx="372.9" cy="385.4" r="5.9" fill="#6B3A1F"/><circle cx="425.6" cy="299.8" r="8.6" fill="#6B3A1F"/><circle cx="361.9" cy="413.3" r="4.8" fill="#6B3A1F"/><circle cx="503.7" cy="281.8" r="6.6" fill="#6B3A1F"/><circle cx="460.7" cy="403.8" r="6.2" fill="#6B3A1F"/><circle cx="476.5" cy="229.4" r="7.8" fill="#6B3A1F"/><circle cx="396.0" cy="366.6" r="8.5" fill="#6B3A1F"/><circle cx="431.7" cy="338.5" r="6.7" fill="#6B3A1F"/><circle cx="251.4" cy="367.9" r="4.7" fill="#6B3A1F"/><circle cx="521.1" cy="399.5" r="7.1" fill="#6B3A1F"/><circle cx="281.9" cy="378.5" r="7.2" fill="#6B3A1F"/><circle cx="383.2" cy="305.6" r="4.9" fill="#6B3A1F"/><circle cx="458.4" cy="353.3" r="7.4" fill="#6B3A1F"/><circle cx="349.8" cy="397.2" r="18.0" fill="#C0392B" stroke="#8E2418" stroke-width="2"/><circle cx="322.7" cy="278.7" r="18.0" fill="#C0392B" stroke="#8E2418" stroke-width="2"/><circle cx="346.1" cy="313.1" r="18.0" fill="#C0392B" stroke="#8E2418" stroke-width="2"/><circle cx="450.0" cy="246.6" r="18.0" fill="#C0392B" stroke="#8E2418" stroke-width="2"/><circle cx="497.4" cy="273.0" r="18.0" fill="#C0392B" stroke="#8E2418" stroke-width="2"/><circle cx="501.1" cy="359.6" r="18.0" fill="#C0392B" stroke="#8E2418" stroke-width="2"/><text x="400.0" y="708" text-anchor="middle" font-size="46" font-weight="bold" fill="#FFCE00" letter-spacing="6">CARNES</text><text x="400.0" y="752" text-anchor="middle" font-size="22" fill="#cdbfa8" letter-spacing="3">Foto galería 6 · reemplazar</text><rect x="0" y="790" width="266.6666666666667" height="10" fill="#FFCE00"/><rect x="266.6666666666667" y="790" width="266.6666666666667" height="10" fill="#00247D"/><rect x="533.3333333333334" y="790" width="266.6666666666667" height="10" fill="#CF142B"/></svg>